<svg xmlns="http://www.w3.org/2000/svg" width="18.059" height="16.035" viewBox="0 0 18.059 16.035">
  <g id="Layers" transform="translate(-517.369 -449.174)">
    <path id="Rectangle_32" data-name="Rectangle 32" d="M517.924,453.7l7.137-4.2a2.9,2.9,0,0,1,2.676,0l7.137,4.2a.837.837,0,0,1,0,1.576l-7.137,4.2a2.9,2.9,0,0,1-2.676,0l-7.137-4.2A.837.837,0,0,1,517.924,453.7Z" transform="translate(0)" fill="#fff"/>
    <g id="Group_10" data-name="Group 10" transform="translate(517.369 457.794)">
      <path id="Path_28" data-name="Path 28" d="M534.873,464.932l-1.559-.969-5.578,3.467a2.768,2.768,0,0,1-2.676,0l-5.578-3.467-1.559.969a.9.9,0,0,0,0,1.664l7.137,4.437a2.772,2.772,0,0,0,2.676,0l7.137-4.437A.9.9,0,0,0,534.873,464.932Z" transform="translate(-517.369 -463.963)" fill="#fff"/>
    </g>
  </g>
</svg>
